<svg width="20" height="20" viewBox="0 0 20 20" fill="none" xmlns="http://www.w3.org/2000/svg">
<path d="M1.80304 7.08307C1.66797 8.00288 1.66797 9.20795 1.66797 10.8333C1.66797 13.976 1.66797 15.5474 2.64428 16.5237C3.62059 17.5 5.19194 17.5 8.33463 17.5H11.668C14.8107 17.5 16.382 17.5 17.3583 16.5237C18.3346 15.5474 18.3346 13.976 18.3346 10.8333C18.3346 9.20805 18.3346 8.00303 18.1996 7.08324C16.3024 8.31643 15.0864 9.10289 13.9597 9.58722V10.0001C13.9597 10.3453 13.6799 10.6251 13.3347 10.6251C12.9941 10.6251 12.7171 10.3526 12.7099 10.0137C10.9346 10.4818 9.06813 10.4817 7.2929 10.0137C7.28564 10.3526 7.00866 10.6251 6.66804 10.6251C6.32286 10.6251 6.04304 10.3453 6.04304 10.0001V9.58716C4.91634 9.1028 3.70031 8.31631 1.80304 7.08307Z" fill="#010101"/>
<path fill-rule="evenodd" clip-rule="evenodd" d="M8.81911 1.875L8.80209 1.875C8.7075 1.87499 8.63388 1.87498 8.56422 1.87919C7.68052 1.93271 6.9067 2.49046 6.57648 3.31188C6.5503 3.37699 6.50723 3.5063 6.4765 3.59854L6.47327 3.60824C6.38735 3.84151 6.23221 4.04353 6.05261 4.18779C5.86305 4.19392 5.68199 4.20183 5.50893 4.21204C4.13896 4.29287 3.26958 4.51768 2.64428 5.14298C2.44039 5.34687 2.27909 5.5767 2.15147 5.84138C2.19945 5.85775 2.2462 5.88026 2.29064 5.90915C4.04088 7.04681 5.14054 7.7584 6.05427 8.21489C6.10965 7.92639 6.36339 7.70841 6.66804 7.70841C7.01322 7.70841 7.29304 7.98823 7.29304 8.33341V8.715C9.05924 9.24798 10.9435 9.24799 12.7097 8.71504V8.33341C12.7097 7.98823 12.9895 7.70841 13.3347 7.70841C13.6394 7.70841 13.8931 7.92642 13.9485 8.21495C14.8622 7.75846 15.9619 7.04686 17.7122 5.90915C17.7566 5.88031 17.8033 5.85783 17.8512 5.84146C17.7236 5.57675 17.5622 5.34689 17.3583 5.14298C16.733 4.51768 15.8636 4.29287 14.4937 4.21204C14.3294 4.20235 14.1579 4.19473 13.9788 4.18873C13.9675 4.17954 13.9561 4.17005 13.9448 4.16026C13.7442 3.98696 13.5874 3.75842 13.5083 3.54407L13.5057 3.5362C13.4758 3.44647 13.4525 3.37662 13.4265 3.31188C13.0963 2.49046 12.3225 1.93271 11.4388 1.87919C11.3691 1.87498 11.2955 1.87499 11.2009 1.875L8.81911 1.875ZM12.3493 4.01308L12.3455 4.00413L12.3415 3.99405L12.3377 3.9841L12.3347 3.97581L12.3332 3.97164L12.3296 3.96144L12.3264 3.95203L12.3247 3.94681L12.3224 3.93986L12.3206 3.93399L12.3191 3.92925C12.2863 3.8309 12.2762 3.8017 12.2667 3.77813C12.1166 3.40475 11.7649 3.15124 11.3632 3.12691C11.3363 3.12528 11.3034 3.125 11.1839 3.125H8.81911C8.69962 3.125 8.66667 3.12528 8.63978 3.12691C8.23817 3.15123 7.88648 3.40467 7.73634 3.77795L7.73413 3.78377L7.7275 3.80204C7.72197 3.81754 7.71524 3.83691 7.70747 3.85964C7.6937 3.89995 7.67823 3.94621 7.66256 3.99322L7.66104 3.99814L7.65917 4.004L7.6569 4.01095L7.65515 4.01618L7.65196 4.02559L7.64843 4.03579L7.64694 4.03997L7.64391 4.04826L7.6401 4.05823L7.63603 4.06833L7.63256 4.07658L7.63202 4.0778C7.62041 4.10767 7.60812 4.13749 7.59516 4.1672C7.83151 4.16667 8.07783 4.16667 8.33464 4.16667H11.668C11.9275 4.16667 12.1764 4.16667 12.4151 4.16722C12.3913 4.1163 12.3694 4.06487 12.3493 4.01308Z" fill="#010101"/>
</svg>
