<svg width="28" height="28" viewBox="0 0 28 28" fill="none" xmlns="http://www.w3.org/2000/svg">
<path d="M22.75 3.71875H19.9062V2.625C19.9062 2.45095 19.8371 2.28403 19.714 2.16096C19.591 2.03789 19.424 1.96875 19.25 1.96875C19.076 1.96875 18.909 2.03789 18.786 2.16096C18.6629 2.28403 18.5937 2.45095 18.5937 2.625V3.71875H9.40625V2.625C9.40625 2.45095 9.33711 2.28403 9.21404 2.16096C9.09097 2.03789 8.92405 1.96875 8.75 1.96875C8.57595 1.96875 8.40903 2.03789 8.28596 2.16096C8.16289 2.28403 8.09375 2.45095 8.09375 2.625V3.71875H5.25C4.84389 3.71875 4.45441 3.88008 4.16724 4.16724C3.88008 4.45441 3.71875 4.84389 3.71875 5.25V22.75C3.71875 23.1561 3.88008 23.5456 4.16724 23.8328C4.45441 24.1199 4.84389 24.2812 5.25 24.2812H22.75C23.1561 24.2812 23.5456 24.1199 23.8328 23.8328C24.1199 23.5456 24.2812 23.1561 24.2812 22.75V5.25C24.2812 4.84389 24.1199 4.45441 23.8328 4.16724C23.5456 3.88008 23.1561 3.71875 22.75 3.71875ZM5.25 5.03125H8.09375V6.125C8.09375 6.29905 8.16289 6.46597 8.28596 6.58904C8.40903 6.71211 8.57595 6.78125 8.75 6.78125C8.92405 6.78125 9.09097 6.71211 9.21404 6.58904C9.33711 6.46597 9.40625 6.29905 9.40625 6.125V5.03125H18.5937V6.125C18.5937 6.29905 18.6629 6.46597 18.786 6.58904C18.909 6.71211 19.076 6.78125 19.25 6.78125C19.424 6.78125 19.591 6.71211 19.714 6.58904C19.8371 6.46597 19.9062 6.29905 19.9062 6.125V5.03125H22.75C22.808 5.03125 22.8637 5.0543 22.9047 5.09532C22.9457 5.13634 22.9688 5.19198 22.9688 5.25V8.96875H5.03125V5.25C5.03125 5.19198 5.0543 5.13634 5.09532 5.09532C5.13634 5.0543 5.19198 5.03125 5.25 5.03125ZM22.75 22.9688H5.25C5.19198 22.9688 5.13634 22.9457 5.09532 22.9047C5.0543 22.8637 5.03125 22.808 5.03125 22.75V10.2812H22.9688V22.75C22.9688 22.808 22.9457 22.8637 22.9047 22.9047C22.8637 22.9457 22.808 22.9688 22.75 22.9688Z" fill="#010101"/>
<path d="M14.9094 15.0452C15.0296 14.8653 15.0938 14.6538 15.0938 14.4375C15.0938 14.1474 14.9785 13.8692 14.7734 13.6641C14.5683 13.459 14.2901 13.3438 14 13.3438C13.7837 13.3438 13.5722 13.4079 13.3923 13.5281C13.2125 13.6483 13.0723 13.8191 12.9895 14.0189C12.9067 14.2188 12.8851 14.4387 12.9273 14.6509C12.9695 14.863 13.0736 15.0579 13.2266 15.2109C13.3796 15.3639 13.5745 15.468 13.7866 15.5102C13.9988 15.5524 14.2187 15.5308 14.4186 15.448C14.6184 15.3652 14.7892 15.225 14.9094 15.0452Z" fill="#D52027"/>
<path d="M19.7219 15.0452C19.8421 14.8653 19.9062 14.6538 19.9062 14.4375C19.9062 14.1474 19.791 13.8692 19.5859 13.6641C19.3808 13.459 19.1026 13.3438 18.8125 13.3438C18.5962 13.3438 18.3847 13.4079 18.2048 13.5281C18.025 13.6483 17.8848 13.8191 17.802 14.0189C17.7192 14.2188 17.6976 14.4387 17.7398 14.6509C17.782 14.863 17.8861 15.0579 18.0391 15.2109C18.1921 15.3639 18.387 15.468 18.5991 15.5102C18.8113 15.5524 19.0312 15.5308 19.2311 15.448C19.4309 15.3652 19.6017 15.225 19.7219 15.0452Z" fill="#D52027"/>
<path d="M10.0969 19.4202C10.2171 19.2403 10.2813 19.0288 10.2813 18.8125C10.2813 18.5224 10.166 18.2442 9.9609 18.0391C9.75578 17.834 9.47758 17.7188 9.1875 17.7188C8.97118 17.7188 8.75971 17.7829 8.57985 17.9031C8.39998 18.0233 8.25979 18.1941 8.17701 18.3939C8.09422 18.5938 8.07256 18.8137 8.11477 19.0259C8.15697 19.238 8.26114 19.4329 8.4141 19.5859C8.56707 19.7389 8.76195 19.843 8.97412 19.8852C9.18629 19.9274 9.4062 19.9058 9.60606 19.823C9.80592 19.7402 9.97674 19.6 10.0969 19.4202Z" fill="#D52027"/>
<path d="M14.9094 19.4202C15.0296 19.2403 15.0938 19.0288 15.0938 18.8125C15.0938 18.5224 14.9785 18.2442 14.7734 18.0391C14.5683 17.834 14.2901 17.7188 14 17.7188C13.7837 17.7188 13.5722 17.7829 13.3923 17.9031C13.2125 18.0233 13.0723 18.1941 12.9895 18.3939C12.9067 18.5938 12.8851 18.8137 12.9273 19.0259C12.9695 19.238 13.0736 19.4329 13.2266 19.5859C13.3796 19.7389 13.5745 19.843 13.7866 19.8852C13.9988 19.9274 14.2187 19.9058 14.4186 19.823C14.6184 19.7402 14.7892 19.6 14.9094 19.4202Z" fill="#D52027"/>
<path d="M19.7219 19.4202C19.8421 19.2403 19.9062 19.0288 19.9062 18.8125C19.9062 18.5224 19.791 18.2442 19.5859 18.0391C19.3808 17.834 19.1026 17.7188 18.8125 17.7188C18.5962 17.7188 18.3847 17.7829 18.2048 17.9031C18.025 18.0233 17.8848 18.1941 17.802 18.3939C17.7192 18.5938 17.6976 18.8137 17.7398 19.0259C17.782 19.238 17.8861 19.4329 18.0391 19.5859C18.1921 19.7389 18.387 19.843 18.5991 19.8852C18.8113 19.9274 19.0312 19.9058 19.2311 19.823C19.4309 19.7402 19.6017 19.6 19.7219 19.4202Z" fill="#D52027"/>
</svg>
