<svg width="20" height="20" viewBox="0 0 20 20" fill="none" xmlns="http://www.w3.org/2000/svg">
<path fill-rule="evenodd" clip-rule="evenodd" d="M10.0013 18.3334C14.6037 18.3334 18.3346 14.6025 18.3346 10.0001C18.3346 5.39771 14.6037 1.66675 10.0013 1.66675C5.39893 1.66675 1.66797 5.39771 1.66797 10.0001C1.66797 14.6025 5.39893 18.3334 10.0013 18.3334ZM10.6263 5.00008C10.6263 4.6549 10.3465 4.37508 10.0013 4.37508C9.65612 4.37508 9.3763 4.6549 9.3763 5.00008V5.26403C8.01761 5.50731 6.8763 6.52809 6.8763 7.91675C6.8763 9.51438 8.38695 10.6251 10.0013 10.6251C11.1484 10.6251 11.8763 11.3799 11.8763 12.0834C11.8763 12.787 11.1484 13.5417 10.0013 13.5417C8.85423 13.5417 8.1263 12.787 8.1263 12.0834C8.1263 11.7382 7.84648 11.4584 7.5013 11.4584C7.15612 11.4584 6.8763 11.7382 6.8763 12.0834C6.8763 13.4721 8.01761 14.4929 9.3763 14.7361V15.0001C9.3763 15.3453 9.65612 15.6251 10.0013 15.6251C10.3465 15.6251 10.6263 15.3453 10.6263 15.0001V14.7361C11.985 14.4929 13.1263 13.4721 13.1263 12.0834C13.1263 10.4858 11.6157 9.37508 10.0013 9.37508C8.85423 9.37508 8.1263 8.62031 8.1263 7.91675C8.1263 7.21319 8.85423 6.45841 10.0013 6.45841C11.1484 6.45841 11.8763 7.21319 11.8763 7.91675C11.8763 8.26193 12.1561 8.54175 12.5013 8.54175C12.8465 8.54175 13.1263 8.26193 13.1263 7.91675C13.1263 6.52809 11.985 5.50731 10.6263 5.26403V5.00008Z" fill="#010101"/>
</svg>
