<svg id="get" xmlns="http://www.w3.org/2000/svg" xmlns:xlink="http://www.w3.org/1999/xlink" width="202.568" height="202.576" viewBox="0 0 202.568 202.576">
  <defs>
    <clipPath id="clip-path">
      <rect id="Rectangle_63" data-name="Rectangle 63" width="202.568" height="202.576" fill="#fff"/>
    </clipPath>
  </defs>
  <g id="Group_560" data-name="Group 560" clip-path="url(#clip-path)">
    <path id="Path_495" data-name="Path 495" d="M86.814,13.131a4.385,4.385,0,0,1-2.519-.3,4.911,4.911,0,0,1-2.049-1.743,7.426,7.426,0,0,1-1.164-3.105,7.307,7.307,0,0,1,.129-3.324,4.961,4.961,0,0,1,1.441-2.321,4.665,4.665,0,0,1,2.391-1.117,4.434,4.434,0,0,1,1.99.07,3.859,3.859,0,0,1,1.448.778,4.1,4.1,0,0,1,.934,1.157,3.962,3.962,0,0,1,.433,1.222c0,.016.006.031.008.047s0,.031.008.047l-1.655.27c0-.015-.006-.031-.008-.047s-.006-.031-.008-.046a2.681,2.681,0,0,0-.3-.851,2.407,2.407,0,0,0-.592-.712,2.255,2.255,0,0,0-.877-.437,2.737,2.737,0,0,0-1.145-.03,2.9,2.9,0,0,0-1.515.735,3.356,3.356,0,0,0-.937,1.659A6.319,6.319,0,0,0,82.8,7.7a7.481,7.481,0,0,0,.58,2,4,4,0,0,0,.906,1.278,2.776,2.776,0,0,0,1.127.633,2.9,2.9,0,0,0,1.25.062,3.109,3.109,0,0,0,1.376-.527,2.452,2.452,0,0,0,.751-.876,2.342,2.342,0,0,0,.254-.936l-.173-1.059L86.219,8.7,86,7.367l4.182-.683.911,5.578L90,12.441l-.336-1.267a1.986,1.986,0,0,1-.2.412,2.811,2.811,0,0,1-.481.578,3.414,3.414,0,0,1-.857.574,4.624,4.624,0,0,1-1.317.393" fill="#fff"/>
    <path id="Path_496" data-name="Path 496" d="M93.35,1.787l.728-.948.283,5.144-.443-.525,4.437-.244.079,1.428L94,6.887l.382-.571.286,5.184-.828-.862,5.683-.313.08,1.429-6.637.365L92.319.411,98.954.045l.08,1.429Z" fill="#fff"/>
    <path id="Path_497" data-name="Path 497" d="M109.157,1.736,105.606,1.6l.576-.884L105.739,11.9l-1.724-.068L104.458.643l.56.929-3.6-.143L101.476,0l7.738.306Z" fill="#fff"/>
    <path id="Path_498" data-name="Path 498" d="M122.933,3.785l-3.5-.632.693-.8L118.138,13.38l-1.7-.306,1.991-11.023.426,1-3.544-.641L115.567,1l7.62,1.377Z" fill="#fff"/>
    <path id="Path_499" data-name="Path 499" d="M125.928,15.41a4.646,4.646,0,0,1-1.751-.919,4.443,4.443,0,0,1-1.166-1.558,5.485,5.485,0,0,1-.466-2.111,8.279,8.279,0,0,1,.354-2.565,8.252,8.252,0,0,1,1.058-2.364,5.414,5.414,0,0,1,1.509-1.528,4.378,4.378,0,0,1,1.814-.687,4.722,4.722,0,0,1,1.965.153,4.788,4.788,0,0,1,1.76.914,4.349,4.349,0,0,1,1.175,1.544,5.448,5.448,0,0,1,.466,2.094,8.2,8.2,0,0,1-.354,2.565,8.268,8.268,0,0,1-1.058,2.364,5.488,5.488,0,0,1-1.513,1.543,4.428,4.428,0,0,1-1.818.7,4.67,4.67,0,0,1-1.975-.148m.4-1.414a2.753,2.753,0,0,0,1.683-.031,3.222,3.222,0,0,0,1.489-1.14,6.981,6.981,0,0,0,1.1-2.361,6.834,6.834,0,0,0,.313-2.581,3.149,3.149,0,0,0-.666-1.729,2.922,2.922,0,0,0-3.076-.882,3.161,3.161,0,0,0-1.488,1.112,6.765,6.765,0,0,0-1.1,2.355,6.876,6.876,0,0,0-.313,2.593,3.237,3.237,0,0,0,.667,1.755,2.748,2.748,0,0,0,1.4.909" fill="#fff"/>
    <path id="Path_500" data-name="Path 500" d="M141.236,14.691l.6-1.186,1.209,8.5-1.743-.814-.96-6.906.709.454-2.494,1.319.619-.93-1.944,4.163-1.563-.73,4.961-10.625,1.563.73L139.514,14.4,139.329,14l6.745-3.528,1.685.787Z" fill="#fff"/>
    <path id="Path_501" data-name="Path 501" d="M145.6,23.476l-1.43-.876,6.123-10,2.346,1.437-1.75,11.718-.218-.04,5.737-9.37,1.438.88-6.123,10-2.38-1.457,1.755-11.7.227.055Z" fill="#fff"/>
    <path id="Path_502" data-name="Path 502" d="M156.687,31.223a4.642,4.642,0,0,1-1.268-1.516,4.422,4.422,0,0,1-.485-1.885,5.485,5.485,0,0,1,.373-2.129,9.155,9.155,0,0,1,3.183-4.02,5.429,5.429,0,0,1,1.977-.838,4.381,4.381,0,0,1,1.939.055,4.966,4.966,0,0,1,3.038,2.406,4.338,4.338,0,0,1,.5,1.875,5.444,5.444,0,0,1-.366,2.114,9.167,9.167,0,0,1-3.184,4.02,5.492,5.492,0,0,1-1.986.85,4.426,4.426,0,0,1-1.949-.043,4.665,4.665,0,0,1-1.77-.889m.913-1.153a2.76,2.76,0,0,0,1.568.613,3.219,3.219,0,0,0,1.811-.488,6.968,6.968,0,0,0,1.914-1.764,6.838,6.838,0,0,0,1.274-2.267,3.156,3.156,0,0,0,.042-1.853,2.923,2.923,0,0,0-2.508-1.987,3.172,3.172,0,0,0-1.8.461,6.809,6.809,0,0,0-1.919,1.757,6.905,6.905,0,0,0-1.277,2.279,3.24,3.24,0,0,0-.051,1.876,2.754,2.754,0,0,0,.946,1.373" fill="#fff"/>
    <path id="Path_503" data-name="Path 503" d="M162.306,35.672l7.155-9.465,1.24,1.278-6.989,8.827-.177-.194,9.634-6.088,1.545,1.592-6.385,9.438-.188-.183,9.036-6.715,1.245,1.284-9.69,6.851-1.849-1.906,6.036-8.7.133.136-8.892,5.757Z" fill="#fff"/>
    <path id="Path_504" data-name="Path 504" d="M181.349,52.26a4.561,4.561,0,0,1-3.4.966,4.766,4.766,0,0,1-3.413-5.049,4.565,4.565,0,0,1,2.165-2.793l.589-.4c.208-.142.427-.289.656-.443l4.913-3.323.966,1.43-5.071,3.428-.587.4-.493.334a3.5,3.5,0,0,0-1.562,1.785,2.7,2.7,0,0,0,2.038,3.013,3.484,3.484,0,0,0,2.24-.781l6.151-4.159.966,1.429Z" fill="#fff"/>
    <path id="Path_505" data-name="Path 505" d="M180.3,59.6a5.313,5.313,0,0,1-.653-2.069,2.979,2.979,0,0,1,.4-1.775,3.665,3.665,0,0,1,1.5-1.348l.231-.122.226-.12.806,1.526-.207.109-.222.117a2,2,0,0,0-1.131,1.255,2.508,2.508,0,0,0,.345,1.733,3.21,3.21,0,0,0,1.151,1.352,1.372,1.372,0,0,0,1.378-.054,1.49,1.49,0,0,0,.738-.809,3.074,3.074,0,0,0,.161-1.235,11.945,11.945,0,0,0-.2-1.582,7.742,7.742,0,0,1-.134-1.862,3.654,3.654,0,0,1,.445-1.607,3.012,3.012,0,0,1,1.276-1.183,2.766,2.766,0,0,1,1.7-.341,3.05,3.05,0,0,1,1.557.724,5.3,5.3,0,0,1,1.249,1.606,5.465,5.465,0,0,1,.653,2.025,3.014,3.014,0,0,1-.334,1.75,3.3,3.3,0,0,1-1.423,1.314l-.243.128-.25.133-.809-1.533.218-.115.211-.112A1.824,1.824,0,0,0,190,56.316a2.549,2.549,0,0,0-.366-1.68,3.015,3.015,0,0,0-1.1-1.277,1.332,1.332,0,0,0-1.338.055,1.5,1.5,0,0,0-.741.81,3.008,3.008,0,0,0-.149,1.23,15.682,15.682,0,0,0,.182,1.571,9.846,9.846,0,0,1,.15,1.967,3.312,3.312,0,0,1-.415,1.546,3.017,3.017,0,0,1-1.262,1.134,2.915,2.915,0,0,1-1.741.363,3.07,3.07,0,0,1-1.6-.726,5.539,5.539,0,0,1-1.318-1.7" fill="#fff"/>
    <path id="Path_506" data-name="Path 506" d="M189.5,87.223a4.391,4.391,0,0,1,.316-2.518,4.912,4.912,0,0,1,1.752-2.041,7.45,7.45,0,0,1,3.111-1.15,7.315,7.315,0,0,1,3.323.144,4.965,4.965,0,0,1,2.315,1.452,4.649,4.649,0,0,1,1.105,2.4,4.415,4.415,0,0,1-.078,1.988,3.84,3.84,0,0,1-.784,1.445,4.083,4.083,0,0,1-1.162.929,3.984,3.984,0,0,1-1.223.428l-.048.008-.047.007-.263-1.656.047-.008.047-.007a2.7,2.7,0,0,0,.852-.292,2.437,2.437,0,0,0,.715-.589,2.3,2.3,0,0,0,.442-.875,2.766,2.766,0,0,0,.034-1.145,2.9,2.9,0,0,0-.728-1.518,3.362,3.362,0,0,0-1.655-.945,6.317,6.317,0,0,0-2.62-.042,7.449,7.449,0,0,0-2,.571,3.989,3.989,0,0,0-1.281.9,2.755,2.755,0,0,0-.638,1.124,2.873,2.873,0,0,0-.068,1.25,3.1,3.1,0,0,0,.521,1.379,2.438,2.438,0,0,0,.872.755,2.352,2.352,0,0,0,.936.258l1.059-.168-.421-2.655,1.334-.212.666,4.185-5.582.887-.175-1.091,1.267-.33a2.013,2.013,0,0,1-.409-.2,2.78,2.78,0,0,1-.576-.484,3.453,3.453,0,0,1-.571-.859,4.689,4.689,0,0,1-.387-1.319" fill="#fff"/>
    <path id="Path_507" data-name="Path 507" d="M200.819,93.837l.944.733-5.144.259.526-.441.224,4.439-1.429.072-.224-4.439.569.385-5.185.261.866-.824.287,5.685-1.43.072-.334-6.638,11.712-.588.334,6.637-1.43.072Z" fill="#fff"/>
    <path id="Path_508" data-name="Path 508" d="M200.8,109.607l.156-3.55.882.579-11.19-.491.075-1.724,11.191.492-.931.556.158-3.6,1.43.063-.341,7.735Z" fill="#fff"/>
    <path id="Path_509" data-name="Path 509" d="M198.681,123.4l.648-3.494.793.7-11.013-2.043.314-1.7,11.014,2.043-1,.421.657-3.541,1.406.26-1.412,7.615Z" fill="#fff"/>
    <path id="Path_510" data-name="Path 510" d="M187.049,126.318a4.637,4.637,0,0,1,.928-1.747,4.437,4.437,0,0,1,1.562-1.159,5.474,5.474,0,0,1,2.112-.457,9.164,9.164,0,0,1,4.923,1.434A5.4,5.4,0,0,1,198.1,125.9a4.372,4.372,0,0,1,.679,1.817,4.711,4.711,0,0,1-.163,1.965,4.775,4.775,0,0,1-.921,1.756,4.324,4.324,0,0,1-1.549,1.167,5.485,5.485,0,0,1-2.1.458,9.16,9.16,0,0,1-4.923-1.435,5.476,5.476,0,0,1-1.536-1.519,4.421,4.421,0,0,1-.7-1.822,4.67,4.67,0,0,1,.157-1.974m1.412.411a2.764,2.764,0,0,0,.023,1.684,3.225,3.225,0,0,0,1.134,1.493,6.99,6.99,0,0,0,2.356,1.109,6.842,6.842,0,0,0,2.58.325,3.15,3.15,0,0,0,1.732-.659,2.922,2.922,0,0,0,.9-3.072,3.169,3.169,0,0,0-1.1-1.493A6.8,6.8,0,0,0,193.727,125a6.911,6.911,0,0,0-2.593-.325,3.244,3.244,0,0,0-1.757.66,2.76,2.76,0,0,0-.916,1.394" fill="#fff"/>
    <path id="Path_511" data-name="Path 511" d="M187.694,141.641l1.184.6-8.5,1.17.822-1.739,6.91-.93-.457.708-1.308-2.5.928.624-4.154-1.963.736-1.56,10.6,5.009-.737,1.56-5.721-2.7.393-.182,3.5,6.76-.795,1.682Z" fill="#fff"/>
    <path id="Path_512" data-name="Path 512" d="M178.89,145.96l.883-1.427,9.972,6.168L188.3,153.04l-11.71-1.8.041-.217,9.345,5.779-.887,1.433-9.972-6.169,1.467-2.373,11.689,1.808-.057.228Z" fill="#fff"/>
    <path id="Path_513" data-name="Path 513" d="M171.1,157.013a4.63,4.63,0,0,1,1.522-1.262,4.427,4.427,0,0,1,1.887-.476,5.478,5.478,0,0,1,2.127.383,9.16,9.16,0,0,1,4.006,3.2,5.449,5.449,0,0,1,.829,1.98,4.379,4.379,0,0,1-.065,1.939,4.715,4.715,0,0,1-.9,1.755,4.781,4.781,0,0,1-1.521,1.272,4.3,4.3,0,0,1-1.877.489,5.423,5.423,0,0,1-2.112-.375,8.241,8.241,0,0,1-2.231-1.314,8.34,8.34,0,0,1-1.775-1.887,5.518,5.518,0,0,1-.842-1.99,4.424,4.424,0,0,1,.052-1.949,4.657,4.657,0,0,1,.9-1.766m1.148.918a2.772,2.772,0,0,0-.62,1.565,3.233,3.233,0,0,0,.479,1.814,7.016,7.016,0,0,0,1.756,1.922,6.865,6.865,0,0,0,2.262,1.283,3.152,3.152,0,0,0,1.852.051,2.924,2.924,0,0,0,2-2.5,3.17,3.17,0,0,0-.454-1.8,6.774,6.774,0,0,0-1.748-1.927,6.892,6.892,0,0,0-2.272-1.287,3.238,3.238,0,0,0-1.876-.059,2.752,2.752,0,0,0-1.378.939" fill="#fff"/>
    <path id="Path_514" data-name="Path 514" d="M166.622,162.611l9.434,7.2-1.285,1.235-8.795-7.029.195-.175,6.045,9.661-1.6,1.537-9.408-6.427.184-.187,6.674,9.065-1.29,1.24-6.808-9.721,1.915-1.84,8.674,6.075-.138.132-5.717-8.917Z" fill="#fff"/>
    <path id="Path_515" data-name="Path 515" d="M149.947,181.581a4.566,4.566,0,0,1-.951-3.406,4.766,4.766,0,0,1,5.064-3.39,4.565,4.565,0,0,1,2.783,2.178c.125.185.256.382.4.592s.287.427.441.657l3.3,4.928-1.434.96-3.406-5.087-.394-.588-.331-.5a3.5,3.5,0,0,0-1.779-1.57,2.257,2.257,0,0,0-1.9.424,2.28,2.28,0,0,0-1.125,1.6,3.484,3.484,0,0,0,.771,2.244l4.131,6.17-1.433.96Z" fill="#fff"/>
    <path id="Path_516" data-name="Path 516" d="M142.6,180.5a5.3,5.3,0,0,1,2.072-.644,2.975,2.975,0,0,1,1.773.406,3.655,3.655,0,0,1,1.341,1.509l.122.233.117.225-1.529.8-.108-.207-.116-.222a1.994,1.994,0,0,0-1.249-1.137,2.511,2.511,0,0,0-1.735.338,3.2,3.2,0,0,0-1.357,1.144,1.372,1.372,0,0,0,.048,1.379,1.492,1.492,0,0,0,.805.741,3.067,3.067,0,0,0,1.235.166,12.049,12.049,0,0,0,1.582-.19,7.784,7.784,0,0,1,1.863-.126,3.678,3.678,0,0,1,1.605.452,3.017,3.017,0,0,1,1.177,1.282,2.77,2.77,0,0,1,.333,1.7,3.048,3.048,0,0,1-.731,1.552,5.325,5.325,0,0,1-1.612,1.242,5.456,5.456,0,0,1-2.027.643,3.01,3.01,0,0,1-1.749-.342,3.3,3.3,0,0,1-1.308-1.429l-.127-.243-.131-.251,1.537-.8c.041.08.079.152.114.218l.11.211a1.832,1.832,0,0,0,1.189,1.066,2.568,2.568,0,0,0,1.683-.36,3.021,3.021,0,0,0,1.281-1.091,1.332,1.332,0,0,0-.048-1.338,1.5,1.5,0,0,0-.807-.745,3.016,3.016,0,0,0-1.229-.156q-.711.04-1.573.176a10.018,10.018,0,0,1-1.967.141,3.3,3.3,0,0,1-1.544-.422,3.029,3.029,0,0,1-1.129-1.267,2.914,2.914,0,0,1-.355-1.743,3.073,3.073,0,0,1,.734-1.6,5.548,5.548,0,0,1,1.71-1.311" fill="#fff"/>
    <path id="Path_517" data-name="Path 517" d="M114.965,189.571a4.394,4.394,0,0,1,2.516.327,4.923,4.923,0,0,1,2.034,1.762,7.436,7.436,0,0,1,1.136,3.114,7.3,7.3,0,0,1-.159,3.323,4.95,4.95,0,0,1-1.461,2.309,4.652,4.652,0,0,1-2.4,1.1,4.433,4.433,0,0,1-1.988-.087,3.859,3.859,0,0,1-1.442-.791,4.08,4.08,0,0,1-.923-1.165,3.938,3.938,0,0,1-.423-1.226l-.008-.047-.007-.047,1.658-.255c0,.015,0,.031.007.046l.007.047a2.692,2.692,0,0,0,.289.853,2.432,2.432,0,0,0,.585.718,2.27,2.27,0,0,0,.873.444,2.742,2.742,0,0,0,1.145.041,2.9,2.9,0,0,0,1.521-.722,3.34,3.34,0,0,0,.952-1.651,6.323,6.323,0,0,0,.054-2.619,7.453,7.453,0,0,0-.562-2,4,4,0,0,0-.894-1.286,2.77,2.77,0,0,0-1.121-.644,2.9,2.9,0,0,0-1.25-.072,3.114,3.114,0,0,0-1.381.514,2.444,2.444,0,0,0-.758.87,2.323,2.323,0,0,0-.262.933l.163,1.061,2.656-.41.206,1.336-4.187.646-.863-5.586,1.092-.169.325,1.27a1.982,1.982,0,0,1,.2-.41,2.852,2.852,0,0,1,.486-.574,3.462,3.462,0,0,1,.862-.567,4.679,4.679,0,0,1,1.321-.381" fill="#fff"/>
    <path id="Path_518" data-name="Path 518" d="M108.294,200.86l-.737.941-.236-5.145.438.528-4.439.2-.066-1.429,4.439-.2-.387.567-.239-5.186.82.87-5.686.261-.066-1.429,6.639-.306.539,11.714-6.64.305-.065-1.429Z" fill="#fff"/>
    <path id="Path_519" data-name="Path 519" d="M92.524,200.772l3.549.172-.583.879.54-11.189,1.723.083-.54,11.189-.552-.934,3.6.174-.069,1.43-7.734-.374Z" fill="#fff"/>
    <path id="Path_520" data-name="Path 520" d="M78.75,198.6l3.491.663-.7.789,2.09-11,1.7.322-2.091,11-.416-1,3.538.673-.267,1.406L78.483,200Z" fill="#fff"/>
    <path id="Path_521" data-name="Path 521" d="M75.871,186.949a4.633,4.633,0,0,1,1.742.934,4.431,4.431,0,0,1,1.152,1.569,5.488,5.488,0,0,1,.448,2.114,9.171,9.171,0,0,1-1.457,4.917A5.4,5.4,0,0,1,76.234,198a4.373,4.373,0,0,1-1.82.672,4.729,4.729,0,0,1-1.964-.172,4.787,4.787,0,0,1-1.752-.929,4.34,4.34,0,0,1-1.161-1.555,5.47,5.47,0,0,1-.448-2.1A9.171,9.171,0,0,1,70.546,189a5.487,5.487,0,0,1,1.527-1.53,4.414,4.414,0,0,1,1.824-.686,4.661,4.661,0,0,1,1.974.166m-.418,1.41a2.757,2.757,0,0,0-1.684.016,3.208,3.208,0,0,0-1.5,1.127,6.983,6.983,0,0,0-1.119,2.35,6.848,6.848,0,0,0-.337,2.578,3.155,3.155,0,0,0,.651,1.736,2.924,2.924,0,0,0,3.068.909,3.175,3.175,0,0,0,1.5-1.1,6.779,6.779,0,0,0,1.125-2.345,6.886,6.886,0,0,0,.337-2.59,3.248,3.248,0,0,0-.652-1.761,2.762,2.762,0,0,0-1.39-.921" fill="#fff"/>
    <path id="Path_522" data-name="Path 522" d="M60.535,187.521l-.609,1.181L58.794,180.2l1.736.83.9,6.915-.706-.461,2.506-1.3-.628.925,1.982-4.146,1.557.745-5.058,10.579-1.556-.744,2.729-5.709.181.394-6.776,3.467-1.679-.8Z" fill="#fff"/>
    <path id="Path_523" data-name="Path 523" d="M56.259,178.7l1.423.889-6.214,9.944-2.332-1.457,1.855-11.7.218.042-5.822,9.318-1.429-.893,6.213-9.946,2.366,1.48-1.86,11.679L50.45,188Z" fill="#fff"/>
    <path id="Path_524" data-name="Path 524" d="M45.242,170.854a4.648,4.648,0,0,1,1.255,1.529,4.431,4.431,0,0,1,.468,1.888,5.469,5.469,0,0,1-.392,2.125,9.168,9.168,0,0,1-3.219,3.992,5.427,5.427,0,0,1-1.984.82,4.378,4.378,0,0,1-1.939-.072,4.721,4.721,0,0,1-1.751-.907,4.773,4.773,0,0,1-1.265-1.526,4.323,4.323,0,0,1-.481-1.88,5.448,5.448,0,0,1,.384-2.11,9.166,9.166,0,0,1,3.22-3.991,5.472,5.472,0,0,1,1.994-.832,4.419,4.419,0,0,1,1.948.059,4.658,4.658,0,0,1,1.762.9M44.319,172a2.759,2.759,0,0,0-1.562-.627,3.218,3.218,0,0,0-1.816.472,6.967,6.967,0,0,0-1.93,1.747,6.839,6.839,0,0,0-1.294,2.256,3.157,3.157,0,0,0-.059,1.852,2.925,2.925,0,0,0,2.491,2.009,3.169,3.169,0,0,0,1.8-.445,6.8,6.8,0,0,0,1.934-1.739,6.9,6.9,0,0,0,1.3-2.267,3.245,3.245,0,0,0,.068-1.876A2.755,2.755,0,0,0,44.319,172" fill="#fff"/>
    <path id="Path_525" data-name="Path 525" d="M39.665,166.357l-7.24,9.4L31.2,174.468l7.067-8.764.175.2-9.688,6-1.53-1.606,6.469-9.38.187.184-9.1,6.634-1.234-1.295,9.751-6.765L35.13,161.6l-6.114,8.647-.131-.138,8.943-5.677Z" fill="#fff"/>
    <path id="Path_526" data-name="Path 526" d="M20.769,149.6a4.563,4.563,0,0,1,3.41-.936,4.141,4.141,0,0,1,2.6,1.937,4.112,4.112,0,0,1,.763,3.143,4.569,4.569,0,0,1-2.191,2.773l-.593.394c-.21.138-.43.285-.66.437l-4.942,3.277-.954-1.438,5.1-3.383c.212-.141.409-.27.59-.391l.5-.329a3.508,3.508,0,0,0,1.578-1.771,2.7,2.7,0,0,0-2.011-3.031,3.482,3.482,0,0,0-2.247.76l-6.189,4.1-.953-1.439Z" fill="#fff"/>
    <path id="Path_527" data-name="Path 527" d="M21.881,142.255a5.328,5.328,0,0,1,.634,2.075A2.978,2.978,0,0,1,22.1,146.1a3.669,3.669,0,0,1-1.516,1.334l-.233.121-.226.116-.793-1.532.209-.108.222-.115a1.992,1.992,0,0,0,1.142-1.244,2.507,2.507,0,0,0-.329-1.735,3.2,3.2,0,0,0-1.138-1.363,1.373,1.373,0,0,0-1.379.041,1.5,1.5,0,0,0-.745.8,3.075,3.075,0,0,0-.172,1.234,12.136,12.136,0,0,0,.183,1.583,7.828,7.828,0,0,1,.118,1.864,3.664,3.664,0,0,1-.46,1.6,3.013,3.013,0,0,1-1.288,1.172,2.771,2.771,0,0,1-1.7.325,3.055,3.055,0,0,1-1.55-.738,5.329,5.329,0,0,1-1.234-1.617,5.454,5.454,0,0,1-.634-2.031,3.008,3.008,0,0,1,.35-1.746,3.287,3.287,0,0,1,1.435-1.3l.244-.126.251-.13.8,1.54-.219.113-.211.11a1.826,1.826,0,0,0-1.07,1.184,2.555,2.555,0,0,0,.351,1.684,3.021,3.021,0,0,0,1.086,1.287,1.333,1.333,0,0,0,1.338-.043,1.5,1.5,0,0,0,.748-.8,3.011,3.011,0,0,0,.162-1.229q-.037-.711-.169-1.574a9.877,9.877,0,0,1-.132-1.967,3.32,3.32,0,0,1,.429-1.542,3.021,3.021,0,0,1,1.272-1.123,2.915,2.915,0,0,1,1.745-.347,3.062,3.062,0,0,1,1.6.741,5.567,5.567,0,0,1,1.3,1.716" fill="#fff"/>
    <path id="Path_528" data-name="Path 528" d="M12.933,114.56a4.385,4.385,0,0,1-.339,2.515,4.919,4.919,0,0,1-1.771,2.025,7.414,7.414,0,0,1-3.12,1.121,7.29,7.29,0,0,1-3.322-.174,4.963,4.963,0,0,1-2.3-1.472A4.66,4.66,0,0,1,1,116.168a4.432,4.432,0,0,1,.1-1.987,3.84,3.84,0,0,1,.8-1.438,4.076,4.076,0,0,1,1.169-.918,3.953,3.953,0,0,1,1.228-.417l.047-.007.047-.007.248,1.659-.047.007-.047.007a2.67,2.67,0,0,0-.854.284,2.421,2.421,0,0,0-.721.582,2.275,2.275,0,0,0-.448.871,2.736,2.736,0,0,0-.046,1.145,2.894,2.894,0,0,0,.714,1.524,3.339,3.339,0,0,0,1.647.96,6.311,6.311,0,0,0,2.618.066,7.454,7.454,0,0,0,2-.552,4,4,0,0,0,1.29-.889,2.766,2.766,0,0,0,.648-1.117,2.9,2.9,0,0,0,.079-1.25,3.1,3.1,0,0,0-.509-1.383,2.429,2.429,0,0,0-.865-.763,2.333,2.333,0,0,0-.932-.266l-1.062.158.4,2.658-1.337.2-.627-4.19,5.59-.836.164,1.093-1.271.318a2.012,2.012,0,0,1,.409.2,2.939,2.939,0,0,1,.571.489,3.406,3.406,0,0,1,.563.865,4.646,4.646,0,0,1,.375,1.323" fill="#fff"/>
    <path id="Path_529" data-name="Path 529" d="M1.678,107.867l-.938-.741,5.147-.214-.531.436-.184-4.44,1.43-.06.184,4.441-.565-.39,5.187-.216-.874.816-.236-5.687,1.43-.06L12,108.393.288,108.88l-.276-6.64,1.43-.06Z" fill="#fff"/>
    <path id="Path_530" data-name="Path 530" d="M1.839,92.059l-.188,3.548-.876-.588,11.185.594-.091,1.723L.683,96.742l.937-.547-.191,3.6L0,99.715l.41-7.732Z" fill="#fff"/>
    <path id="Path_531" data-name="Path 531" d="M4.077,78.306,3.4,81.794l-.786-.7,11,2.143-.33,1.693-11-2.142,1-.413L2.6,85.907l-1.4-.274,1.481-7.6Z" fill="#fff"/>
    <path id="Path_532" data-name="Path 532" d="M15.738,75.486a4.625,4.625,0,0,1-.943,1.738,4.441,4.441,0,0,1-1.573,1.145,5.484,5.484,0,0,1-2.117.438,8.281,8.281,0,0,1-2.56-.39A8.232,8.232,0,0,1,6.2,77.327,5.409,5.409,0,0,1,4.689,75.8a4.379,4.379,0,0,1-.663-1.823,4.728,4.728,0,0,1,.18-1.963,4.778,4.778,0,0,1,.938-1.748A4.335,4.335,0,0,1,6.7,69.111a5.447,5.447,0,0,1,2.1-.439,8.266,8.266,0,0,1,2.561.39,8.291,8.291,0,0,1,2.349,1.089,5.5,5.5,0,0,1,1.522,1.535,4.408,4.408,0,0,1,.678,1.827,4.66,4.66,0,0,1-.175,1.973m-1.408-.424a2.765,2.765,0,0,0-.007-1.684,3.234,3.234,0,0,0-1.12-1.5,7.007,7.007,0,0,0-2.346-1.13,6.877,6.877,0,0,0-2.577-.349,3.156,3.156,0,0,0-1.738.643A2.921,2.921,0,0,0,5.619,74.1a3.171,3.171,0,0,0,1.091,1.5,6.8,6.8,0,0,0,2.34,1.136,6.894,6.894,0,0,0,2.589.349,3.241,3.241,0,0,0,1.763-.644,2.745,2.745,0,0,0,.928-1.385" fill="#fff"/>
    <path id="Path_533" data-name="Path 533" d="M15.234,60.154l-1.178-.614,8.512-1.093-.838,1.732-6.918.866.464-.7,1.284,2.511-.922-.631,4.137,2-.752,1.553L8.467,60.67l.751-1.554,5.7,2.756-.4.179-3.435-6.792.81-1.675Z" fill="#fff"/>
    <path id="Path_534" data-name="Path 534" d="M24.074,55.922l-.9,1.418-9.917-6.257,1.468-2.327,11.694,1.908-.043.217-9.292-5.863.9-1.425,9.917,6.258-1.49,2.36L14.744,50.3l.059-.226Z" fill="#fff"/>
    <path id="Path_535" data-name="Path 535" d="M31.967,44.94a4.639,4.639,0,0,1-1.534,1.248,4.4,4.4,0,0,1-1.891.46,5.5,5.5,0,0,1-2.124-.4,9.187,9.187,0,0,1-3.976-3.237,5.426,5.426,0,0,1-.812-1.989,4.388,4.388,0,0,1,.081-1.938,4.973,4.973,0,0,1,2.447-3.005,4.327,4.327,0,0,1,1.881-.473A5.474,5.474,0,0,1,28.148,36a9.168,9.168,0,0,1,3.977,3.239,5.477,5.477,0,0,1,.824,2,4.423,4.423,0,0,1-.069,1.946,4.655,4.655,0,0,1-.913,1.758m-1.141-.928a2.758,2.758,0,0,0,.634-1.56A3.222,3.222,0,0,0,31,40.635,7.013,7.013,0,0,0,29.258,38.7a6.865,6.865,0,0,0-2.25-1.3,3.16,3.16,0,0,0-1.851-.067,2.923,2.923,0,0,0-2.021,2.481,3.173,3.173,0,0,0,.437,1.808,6.793,6.793,0,0,0,1.731,1.94,6.869,6.869,0,0,0,2.261,1.308,3.231,3.231,0,0,0,1.875.076,2.738,2.738,0,0,0,1.386-.927" fill="#fff"/>
    <path id="Path_536" data-name="Path 536" d="M36.49,39.383,27.122,32.1l1.294-1.222,8.733,7.106-.2.174-5.958-9.714,1.613-1.523,9.351,6.51-.185.186-6.594-9.125,1.3-1.228L43.2,33.047,41.27,34.869l-8.619-6.152.139-.131,5.637,8.969Z" fill="#fff"/>
    <path id="Path_537" data-name="Path 537" d="M53.337,20.563a4.558,4.558,0,0,1,.919,3.414,4.129,4.129,0,0,1-1.947,2.6,4.112,4.112,0,0,1-3.146.749,4.572,4.572,0,0,1-2.764-2.2l-.391-.595-.434-.661-3.255-4.957,1.442-.947,3.36,5.117.388.592q.18.271.328.5A3.493,3.493,0,0,0,49.6,25.75a2.259,2.259,0,0,0,1.9-.406,2.284,2.284,0,0,0,1.139-1.59A3.488,3.488,0,0,0,51.89,21.5L47.815,15.3l1.442-.947Z" fill="#fff"/>
    <path id="Path_538" data-name="Path 538" d="M60.659,21.714a5.326,5.326,0,0,1-2.078.625,2.973,2.973,0,0,1-1.769-.421A3.664,3.664,0,0,1,55.484,20.4c-.046-.089-.085-.167-.119-.233l-.116-.227,1.536-.785c.041.08.077.149.106.209l.115.222a1.993,1.993,0,0,0,1.238,1.148,2.508,2.508,0,0,0,1.738-.322,3.2,3.2,0,0,0,1.367-1.132,1.369,1.369,0,0,0-.035-1.379,1.493,1.493,0,0,0-.8-.748,3.065,3.065,0,0,0-1.234-.178,11.917,11.917,0,0,0-1.584.177,7.859,7.859,0,0,1-1.864.109,3.679,3.679,0,0,1-1.6-.467A3,3,0,0,1,53.068,15.5a2.762,2.762,0,0,1-.318-1.7,3.043,3.043,0,0,1,.745-1.547,5.334,5.334,0,0,1,1.622-1.227,5.471,5.471,0,0,1,2.034-.625,3.006,3.006,0,0,1,1.745.358,3.3,3.3,0,0,1,1.3,1.44c.049.1.09.176.125.245l.129.251-1.543.789c-.041-.08-.078-.153-.113-.22l-.108-.212a1.827,1.827,0,0,0-1.18-1.075,2.555,2.555,0,0,0-1.685.344,3.019,3.019,0,0,0-1.292,1.08,1.336,1.336,0,0,0,.037,1.339,1.49,1.49,0,0,0,.8.751,3.017,3.017,0,0,0,1.228.167,15.621,15.621,0,0,0,1.574-.162,9.918,9.918,0,0,1,1.969-.123,3.308,3.308,0,0,1,1.539.436,3.015,3.015,0,0,1,1.118,1.277,2.912,2.912,0,0,1,.339,1.746,3.062,3.062,0,0,1-.748,1.593,5.558,5.558,0,0,1-1.721,1.3" fill="#fff"/>
    <path id="Path_539" data-name="Path 539" d="M72.4,9.857a3.692,3.692,0,0,0,.142-2.905L72.4,6.578l-1,.36.135.374a2.572,2.572,0,0,1-.512,2.757,2.524,2.524,0,0,1-2.192-1.8l-.129-.357-1,.359.135.374A3.659,3.659,0,0,0,69.8,10.8l.371.989a3.689,3.689,0,0,0-.141,2.9l.135.374,1-.359-.135-.374a2.57,2.57,0,0,1,.513-2.757,2.523,2.523,0,0,1,2.192,1.8l.129.358,1-.359-.134-.375a3.657,3.657,0,0,0-1.951-2.149Z" fill="#bf0"/>
    <path id="Path_540" data-name="Path 540" d="M190.544,70.753a3.69,3.69,0,0,0-2.9-.156l-.375.133.355,1,.374-.134a2.573,2.573,0,0,1,2.755.526,2.524,2.524,0,0,1-1.81,2.183l-.359.127.355,1,.375-.133a3.657,3.657,0,0,0,2.159-1.94l.99-.367a3.693,3.693,0,0,0,2.9.156l.374-.133-.354-1-.375.134a2.571,2.571,0,0,1-2.754-.526,2.523,2.523,0,0,1,1.81-2.183l.358-.127-.354-1-.375.133a3.654,3.654,0,0,0-2.159,1.94Z" fill="#bf0"/>
    <path id="Path_541" data-name="Path 541" d="M132.364,190.978a3.692,3.692,0,0,0,.24-2.9l-.122-.379-1.008.326.123.378a2.572,2.572,0,0,1-.6,2.738,2.522,2.522,0,0,1-2.13-1.872l-.117-.362-1.008.325.123.379a3.653,3.653,0,0,0,1.877,2.214l.337,1a3.692,3.692,0,0,0-.24,2.9l.122.379,1.008-.326-.122-.378a2.57,2.57,0,0,1,.605-2.738,2.522,2.522,0,0,1,2.13,1.872l.117.362,1.007-.325-.122-.379a3.656,3.656,0,0,0-1.877-2.214Z" fill="#bf0"/>
    <path id="Path_542" data-name="Path 542" d="M10.128,129.85a3.69,3.69,0,0,0-2.9-.214l-.378.125.335,1.005.377-.126a2.571,2.571,0,0,1,2.743.581,2.522,2.522,0,0,1-1.853,2.146l-.361.12.334,1.005.378-.126a3.654,3.654,0,0,0,2.2-1.9l1-.347a3.692,3.692,0,0,0,2.9.214l.377-.125-.334-1.005-.378.126a2.571,2.571,0,0,1-2.743-.581,2.522,2.522,0,0,1,1.853-2.146l.361-.12-.334-1-.377.126a3.656,3.656,0,0,0-2.2,1.9Z" fill="#bf0"/>
  </g>
</svg>
