<svg width="20" height="20" viewBox="0 0 20 20" fill="none" xmlns="http://www.w3.org/2000/svg">
<path fill-rule="evenodd" clip-rule="evenodd" d="M9.9987 1.66675C6.3168 1.66675 3.33203 5.00223 3.33203 8.75008C3.33203 12.4686 5.4598 16.5104 8.77959 18.0621C9.55348 18.4238 10.4439 18.4238 11.2178 18.0621C14.5376 16.5104 16.6654 12.4686 16.6654 8.75008C16.6654 5.00223 13.6806 1.66675 9.9987 1.66675ZM9.9987 10.0001C10.9192 10.0001 11.6654 9.25389 11.6654 8.33341C11.6654 7.41294 10.9192 6.66675 9.9987 6.66675C9.07822 6.66675 8.33203 7.41294 8.33203 8.33341C8.33203 9.25389 9.07822 10.0001 9.9987 10.0001Z" fill="#010101"/>
</svg>
